<svg xmlns="http://www.w3.org/2000/svg" viewBox="0 0 64 64" id="Idcard">
  <path d="M58 50H6a2 2 0 0 1-2-2V16a2 2 0 0 1 2-2h52a2 2 0 0 1 2 2v32a2 2 0 0 1-2 2zM8 46h48V18H8z" fill="#595bd4" class="color000000 svgShape"></path>
  <path d="M30 42a2 2 0 0 1-2-2 6 6 0 0 0-12 0 2 2 0 0 1-4 0 10 10 0 0 1 20 0 2 2 0 0 1-2 2z" fill="#595bd4" class="color000000 svgShape"></path>
  <path d="M22 34a6 6 0 1 1 6-6 6 6 0 0 1-6 6zm0-8a2 2 0 1 0 2 2 2 2 0 0 0-2-2zm28 0H38a2 2 0 0 1 0-4h12a2 2 0 0 1 0 4zm0 8H38a2 2 0 0 1 0-4h12a2 2 0 0 1 0 4zm0 8H38a2 2 0 0 1 0-4h12a2 2 0 0 1 0 4z" fill="#595bd4" class="color000000 svgShape"></path>
</svg>
